<svg width="126" height="124" viewBox="0 0 126 124" fill="none" xmlns="http://www.w3.org/2000/svg">
<path d="M0.5 117.25V98.5001C0.5 97.1459 0.708333 95.8438 1.125 94.5938C1.54167 93.3438 2.16667 92.1459 3 91.0001L55.1875 20.6876L48 11.0001C47.4792 10.2709 47.1146 9.51467 46.9063 8.73133C46.6979 7.95217 46.6458 7.17092 46.75 6.38758C46.8542 5.60841 47.1146 4.85425 47.5312 4.12508C47.9479 3.39591 48.5208 2.77091 49.25 2.25008C50.7083 1.20841 52.2708 0.791748 53.9375 1.00008C55.6042 1.20841 56.9583 2.04175 58 3.50008L63 10.2188L68 3.50008C69.0417 2.04175 70.3958 1.20841 72.0625 1.00008C73.7292 0.791748 75.2917 1.20841 76.75 2.25008C78.2083 3.29175 79.0417 4.64591 79.25 6.31258C79.4583 7.97925 79.0417 9.54175 78 11.0001L70.8125 20.6876L123 91.0001C123.833 92.1459 124.458 93.3438 124.875 94.5938C125.292 95.8438 125.5 97.1459 125.5 98.5001V117.25C125.5 119.021 124.9 120.504 123.7 121.7C122.504 122.9 121.021 123.5 119.25 123.5H6.75C4.97917 123.5 3.49583 122.9 2.3 121.7C1.1 120.504 0.5 119.021 0.5 117.25ZM63 31.1563L13 98.5001V111H31.75L57.8438 74.4376C59.0938 72.6668 60.8125 71.7813 63 71.7813C65.1875 71.7813 66.9062 72.6668 68.1562 74.4376L94.25 111H113V98.5001L63 31.1563ZM47.0625 111H78.9375L63 88.8126L47.0625 111ZM68.1562 74.4376L94.25 111L68.1562 74.4376C66.9062 72.6668 65.1875 71.7813 63 71.7813C60.8125 71.7813 59.0938 72.6668 57.8438 74.4376L31.75 111L57.8438 74.4376C59.0938 72.6668 60.8125 71.7813 63 71.7813C65.1875 71.7813 66.9062 72.6668 68.1562 74.4376Z" fill="#43419E"/>
</svg>
